<?xml version="1.0" encoding="UTF-8"?><svg id="Layer_2" xmlns="http://www.w3.org/2000/svg" viewBox="0 0 579.13 768.71"><defs><style>.cls-1{fill:#fff;}</style></defs><g id="Layer_1-2"><path class="cls-1" d="m392.77,188.58c0-6.12-4.98-11.09-11.09-11.09s-11.09,4.98-11.09,11.09,4.98,11.09,11.09,11.09,11.09-4.98,11.09-11.09Z"/><path class="cls-1" d="m494.81,311.91c.1-.24.21-.47.31-.71.61-1.42,1.2-2.85,1.78-4.29.11-.27.22-.54.33-.81.56-1.4,1.1-2.82,1.63-4.24.12-.31.24-.62.35-.93.51-1.38,1-2.77,1.49-4.17.12-.35.25-.7.37-1.05.47-1.36.91-2.73,1.35-4.11.13-.39.26-.78.38-1.17.42-1.34.82-2.69,1.22-4.04.13-.43.26-.86.39-1.29.38-1.31.73-2.64,1.09-3.96.13-.48.26-.95.39-1.43.34-1.29.65-2.59.96-3.89.12-.52.26-1.03.38-1.55.3-1.27.57-2.55.84-3.83.12-.55.25-1.1.36-1.65.26-1.25.49-2.51.73-3.77.11-.59.23-1.17.34-1.76.22-1.23.42-2.47.62-3.71.1-.62.21-1.24.31-1.87.19-1.21.35-2.44.52-3.66.09-.65.19-1.3.27-1.96.15-1.2.28-2.4.42-3.61.08-.68.16-1.37.23-2.05.12-1.2.22-2.4.32-3.6.06-.7.13-1.39.19-2.09.09-1.21.16-2.43.23-3.65.04-.69.1-1.39.13-2.08.07-1.32.11-2.65.15-3.98.02-.6.05-1.19.07-1.78.05-1.93.07-3.86.07-5.8,0-1.79-.03-3.56-.07-5.34-.01-.57-.04-1.14-.05-1.71-.04-1.21-.08-2.42-.14-3.63-.03-.65-.07-1.31-.1-1.96-.06-1.14-.14-2.27-.22-3.41-.05-.65-.09-1.31-.15-1.96-.09-1.19-.2-2.38-.32-3.56-.05-.57-.1-1.13-.16-1.7-.17-1.68-.36-3.35-.57-5.02,0-.06-.01-.12-.02-.18-.22-1.72-.46-3.43-.72-5.13-.09-.57-.18-1.13-.27-1.7-.18-1.15-.37-2.3-.57-3.44-.11-.65-.23-1.3-.35-1.95-.2-1.07-.4-2.13-.61-3.2-.13-.65-.26-1.31-.4-1.96-.23-1.1-.47-2.2-.72-3.29-.13-.59-.26-1.18-.4-1.76-.34-1.48-.7-2.95-1.08-4.41-.07-.26-.13-.52-.2-.78-.4-1.55-.82-3.09-1.25-4.62-.17-.6-.35-1.19-.52-1.78-.3-1.04-.61-2.07-.92-3.1-.21-.67-.42-1.34-.63-2.01-.3-.96-.61-1.91-.93-2.86-.23-.68-.45-1.35-.68-2.03-.33-.97-.67-1.93-1.02-2.9-.23-.63-.45-1.27-.68-1.9-.44-1.19-.9-2.38-1.36-3.56-.25-.64-.5-1.27-.75-1.91-.5-1.24-1-2.48-1.52-3.71-.28-.66-.56-1.31-.84-1.96-.38-.88-.76-1.76-1.15-2.63-.32-.71-.64-1.41-.96-2.11-.37-.81-.75-1.63-1.14-2.43-.34-.72-.68-1.43-1.03-2.14-.39-.8-.79-1.59-1.18-2.38-.35-.7-.7-1.4-1.06-2.1-.45-.87-.91-1.72-1.36-2.58-.59-1.11-1.19-2.21-1.79-3.3-.47-.85-.94-1.7-1.42-2.54-.42-.73-.85-1.46-1.28-2.19-.4-.69-.81-1.38-1.22-2.06-.45-.75-.91-1.5-1.38-2.25-.4-.65-.8-1.29-1.2-1.93-.48-.76-.96-1.52-1.45-2.27-.4-.61-.8-1.22-1.2-1.83-.51-.77-1.02-1.54-1.53-2.3-.36-.53-.73-1.05-1.1-1.58-1.12-1.62-2.27-3.23-3.44-4.82-.29-.39-.57-.79-.86-1.18-.6-.81-1.21-1.61-1.83-2.41-.38-.49-.75-.98-1.13-1.47-.61-.79-1.24-1.57-1.86-2.36-.38-.48-.76-.95-1.15-1.43-.64-.79-1.29-1.58-1.94-2.36-.36-.43-.72-.85-1.08-1.27-.7-.82-1.4-1.64-2.1-2.46-.19-.22-.39-.44-.58-.66-2.58-2.93-5.24-5.8-7.97-8.59-.3-.3-.59-.61-.89-.91-.8-.81-1.6-1.6-2.41-2.4-.33-.32-.65-.64-.98-.96-.82-.8-1.65-1.59-2.48-2.38-.28-.27-.57-.53-.85-.8-2.02-1.88-4.07-3.72-6.16-5.53-2.09-1.8-4.21-3.57-6.36-5.3-.19-.16-.39-.31-.58-.47-.98-.78-1.97-1.55-2.96-2.31-.26-.2-.52-.4-.78-.6-1-.76-2.01-1.52-3.02-2.26-.2-.15-.4-.29-.59-.43-2.6-1.9-5.25-3.74-7.93-5.53-2.09-1.39-4.2-2.76-6.34-4.09-.09-.06-.18-.11-.27-.17-1.15-.71-2.31-1.41-3.47-2.1-.19-.11-.38-.23-.58-.34-1.16-.68-2.33-1.36-3.5-2.02-.13-.07-.25-.14-.38-.21-3.21-1.8-6.48-3.52-9.78-5.17-1.98-.99-3.98-1.96-6-2.89-.02,0-.03-.02-.05-.02-1.28-.59-2.57-1.17-3.86-1.73-.16-.07-.32-.14-.48-.21-1.28-.56-2.56-1.1-3.86-1.64-.09-.04-.19-.08-.29-.12-5.53-2.28-11.17-4.34-16.92-6.17,0,0-.01,0-.02,0-1.36-.43-2.73-.85-4.1-1.26-.17-.05-.34-.1-.5-.15-1.35-.4-2.71-.79-4.07-1.16-.04-.01-.08-.02-.11-.03,0,0,0,0,0,0-18.86-5.17-38.71-7.95-59.22-7.95-32.67,0-63.7,7.02-91.67,19.62,0,0,0,0,0,0-.02,0-.04.02-.06.03-.31.14-.61.28-.92.42-1.15.52-2.29,1.06-3.42,1.6-.46.22-.93.44-1.39.67-1.34.65-2.67,1.31-3.99,1.98-.36.18-.71.37-1.06.55-1.06.55-2.11,1.1-3.16,1.67-.47.25-.93.5-1.4.76-1.28.7-2.55,1.41-3.82,2.14-.4.23-.79.46-1.18.69-.98.57-1.95,1.14-2.92,1.72-.47.28-.94.57-1.41.85-1.22.75-2.44,1.51-3.65,2.28-.43.27-.85.55-1.27.82-.9.59-1.81,1.18-2.7,1.78-.47.32-.95.63-1.42.95-1.17.79-2.33,1.6-3.48,2.41-.45.32-.89.64-1.34.96-.83.6-1.66,1.2-2.49,1.82-.48.35-.95.7-1.43,1.06-1.11.83-2.21,1.68-3.3,2.53-.47.37-.93.74-1.39,1.11-.77.61-1.53,1.22-2.29,1.84-.48.39-.95.78-1.43,1.17-1.05.87-2.09,1.75-3.12,2.64-.48.42-.96.84-1.44,1.26-.7.61-1.4,1.23-2.09,1.85-.48.43-.96.85-1.43,1.29-.99.9-1.97,1.82-2.94,2.74-.49.46-.98.93-1.46,1.4-.64.61-1.27,1.23-1.9,1.86-.48.47-.95.94-1.43,1.41-.93.93-1.84,1.87-2.75,2.82-.5.52-.99,1.04-1.48,1.56-.58.61-1.15,1.23-1.72,1.84-.47.52-.95,1.03-1.42,1.55-.86.96-1.72,1.92-2.57,2.89-.5.57-.99,1.14-1.48,1.71-.51.6-1.03,1.21-1.53,1.81-.65.77-1.29,1.55-1.93,2.33-.63.77-1.25,1.54-1.87,2.32-.49.62-.98,1.24-1.46,1.86-.46.59-.91,1.19-1.37,1.78-.71.94-1.42,1.88-2.11,2.83-.49.67-.99,1.35-1.48,2.02-.48.67-.96,1.34-1.43,2.02-.4.57-.8,1.15-1.2,1.73-.75,1.08-1.48,2.17-2.21,3.27-.4.6-.79,1.19-1.18,1.79-.47.72-.93,1.44-1.39,2.17-.35.55-.69,1.1-1.03,1.65-.75,1.21-1.49,2.43-2.22,3.66-.32.54-.64,1.08-.96,1.62-.45.77-.89,1.54-1.33,2.32-.29.52-.58,1.04-.87,1.56-.74,1.32-1.46,2.66-2.17,4-.26.5-.53,1-.79,1.5-.43.82-.85,1.64-1.26,2.47-.24.48-.48.96-.72,1.45-.71,1.43-1.4,2.87-2.08,4.32-.22.47-.44.94-.66,1.42-.4.86-.79,1.73-1.18,2.6-.2.44-.39.88-.58,1.32-.67,1.54-1.33,3.08-1.96,4.64-.18.45-.37.89-.55,1.34-.37.91-.73,1.82-1.08,2.73-.15.38-.29.77-.44,1.16-.63,1.65-1.24,3.3-1.82,4.97-.15.43-.3.86-.45,1.29-.33.95-.65,1.9-.97,2.85-.1.31-.2.63-.3.94-.58,1.77-1.13,3.55-1.67,5.33-.12.41-.25.83-.37,1.24-.29.99-.57,1.98-.85,2.97-.06.22-.12.43-.18.65-.52,1.91-1.02,3.83-1.49,5.75-.1.41-.2.81-.3,1.22-.24,1.02-.49,2.05-.72,3.07-.02.07-.03.13-.04.2-.47,2.09-.9,4.2-1.31,6.31-.08.4-.16.8-.23,1.21-.61,3.23-1.14,6.49-1.61,9.77-.06.4-.11.81-.17,1.21-.14,1.05-.28,2.09-.41,3.14h0c-1.1,8.98-1.68,18.1-1.68,27.36,0,83.52,45.84,156.32,113.73,194.65h0c.18.1.36.2.53.3,1.82,1.02,3.65,2.02,5.5,2.99.22.12.44.24.67.35.95.49,1.9.98,2.85,1.45.33.16.66.33.98.49,3,1.49,6.04,2.91,9.12,4.27.31.14.62.27.93.41,3.16,1.37,6.36,2.68,9.59,3.91.22.08.44.17.66.25,3.38,1.28,6.8,2.47,10.26,3.59.09.03.17.06.26.08,4.75,1.52,9.57,2.89,14.46,4.1.04.01.08.02.12.03,0,0,0,0,0,0,17.21,4.25,35.2,6.52,53.72,6.52,60.92,0,116.13-24.39,156.44-63.93,0,0,0,0,0,0,.02-.02.04-.04.06-.06,1.25-1.23,2.49-2.47,3.71-3.73.03-.03.07-.07.1-.1,1.23-1.27,2.45-2.56,3.66-3.86.02-.02.04-.04.06-.07,1.21-1.31,2.41-2.63,3.59-3.97.01-.02.03-.03.04-.05,1.19-1.34,2.35-2.7,3.51-4.08,0-.01.02-.02.03-.03,1.15-1.37,2.29-2.76,3.41-4.16.01-.01.02-.03.03-.04,1.12-1.4,2.22-2.81,3.3-4.24.01-.02.03-.03.04-.05,1.08-1.42,2.14-2.86,3.19-4.3.02-.02.03-.05.05-.07,1.04-1.44,2.06-2.89,3.07-4.35.02-.04.05-.07.07-.11,1-1.45,1.97-2.91,2.93-4.39.03-.05.07-.1.1-.15.95-1.46,1.88-2.93,2.8-4.41.04-.07.08-.14.13-.2.9-1.46,1.79-2.94,2.66-4.43.05-.09.11-.18.16-.27.85-1.46,1.69-2.94,2.51-4.42.06-.12.13-.23.2-.35.8-1.46,1.59-2.93,2.36-4.41.07-.14.15-.28.22-.42.76-1.46,1.49-2.92,2.22-4.4.08-.17.17-.34.26-.52.71-1.45,1.39-2.9,2.07-4.36.09-.2.19-.41.29-.61.66-1.43,1.29-2.88,1.92-4.33Zm-160.1,85.34h-87.2V127.34l-32.49-.3.08-12.56.19-31.15,25.89-23.06,16.19-14.42h77.34v351.39Zm21.84-208.66c0-13.86,11.27-25.13,25.13-25.13s25.13,11.27,25.13,25.13-11.28,25.12-25.13,25.12-25.13-11.27-25.13-25.12Zm10.19,81.43l78.14-107.04h18.19l-4.18,5.72-54.15,74.18-19.81,27.13h-18.2Zm55.32-25.17c0-13.86,11.27-25.13,25.13-25.13s25.12,11.27,25.12,25.13-11.27,25.13-25.12,25.13c-.74,0-1.46-.04-2.18-.1-4.03-.35-7.79-1.65-11.06-3.68-7.13-4.44-11.89-12.35-11.89-21.34Z"/><path class="cls-1" d="m458.28,244.84c0-6.12-4.98-11.09-11.09-11.09s-11.09,4.97-11.09,11.09,4.98,11.09,11.09,11.09,11.09-4.97,11.09-11.09Z"/><polygon class="cls-1" points="26.15 550.07 69.68 550.07 69.68 528.89 26.15 528.89 26.15 513.25 74.29 513.25 74.29 490.89 .64 490.89 .64 582.94 26.15 582.94 26.15 550.07"/><path class="cls-1" d="m133.07,489.05c-28.4,0-49.71,21.44-49.71,47.87v.26c0,26.43,21.04,47.6,49.45,47.6s49.71-21.43,49.71-47.86v-.27c0-26.44-21.05-47.6-49.45-47.6Zm23.4,48.13c0,13.28-9.34,24.59-23.4,24.59s-23.53-11.57-23.53-24.85v-.27c0-13.28,9.33-24.59,23.27-24.59s23.66,11.57,23.66,24.86v.26Z"/><path class="cls-1" d="m278.12,522.58v-.27c0-9.07-2.77-16.17-8.16-21.43-6.18-6.31-15.91-9.99-29.98-9.99h-43.53v92.05h25.51v-27.88h11.18l18.54,27.88h29.46l-21.96-32.09c11.44-4.87,18.94-14.2,18.94-28.27Zm-25.65,1.58c0,6.71-4.99,10.92-13.67,10.92h-16.84v-22.1h16.7c8.55,0,13.81,3.68,13.81,10.92v.26Z"/><polygon class="cls-1" points="364.25 582.94 364.25 513.25 391.86 513.25 391.86 490.89 311.12 490.89 311.12 513.25 338.74 513.25 338.74 582.94 364.25 582.94"/><polygon class="cls-1" points="461.95 525.34 429.21 525.34 429.21 490.89 403.7 490.89 403.7 582.94 429.21 582.94 429.21 547.96 461.95 547.96 461.95 582.94 487.47 582.94 487.47 490.89 461.95 490.89 461.95 525.34"/><polygon class="cls-1" points="529.68 561.24 529.68 546.64 573.87 546.64 573.87 526.52 529.68 526.52 529.68 512.58 578.46 512.58 578.46 490.89 504.43 490.89 504.43 582.94 579.13 582.94 579.13 561.24 529.68 561.24"/><path class="cls-1" d="m42.26,601.28H0v98.61h27.33v-28.18h13.52c24.52,0,42.41-12.25,42.41-35.5v-.28c0-21.84-16.06-34.65-41-34.65Zm13.66,36.2c0,7.75-5.92,12.82-15.64,12.82h-12.96v-26.06h12.82c9.86,0,15.78,4.51,15.78,12.97v.27Z"/><polygon class="cls-1" points="169.89 675.94 122.14 675.94 122.14 601.28 94.8 601.28 94.8 699.89 169.89 699.89 169.89 675.94"/><path class="cls-1" d="m202.43,699.89l7.04-17.61h38.03l7.19,17.61h29.3l-41.98-99.31h-26.35l-41.98,99.31h28.74Zm26.2-66.91l10.99,28.03h-22.12l11.13-28.03Z"/><polygon class="cls-1" points="359.65 653.4 319.08 601.28 293.58 601.28 293.58 699.89 320.62 699.89 320.62 645.8 362.74 699.89 386.69 699.89 386.69 601.28 359.65 601.28 359.65 653.4"/><polygon class="cls-1" points="431.21 661.01 478.54 661.01 478.54 639.45 431.21 639.45 431.21 624.53 483.47 624.53 483.47 601.28 404.16 601.28 404.16 699.89 484.18 699.89 484.18 676.65 431.21 676.65 431.21 661.01"/><polygon class="cls-1" points="492.63 625.22 522.21 625.22 522.21 699.89 549.55 699.89 549.55 625.22 579.13 625.22 579.13 601.28 492.63 601.28 492.63 625.22"/><path class="cls-1" d="m564.34,682.53c-4.8,0-8.61,3.96-8.61,8.66v.05c0,4.7,3.76,8.61,8.61,8.61s8.61-3.96,8.61-8.66v-.05c0-4.7-3.76-8.61-8.61-8.61Zm7.16,8.66c0,3.95-3.12,7.26-7.16,7.26s-7.17-3.26-7.17-7.21v-.05c0-3.96,3.12-7.26,7.17-7.26s7.16,3.26,7.16,7.21v.05Z"/><path class="cls-1" d="m568.48,689.65c0-2-1.49-2.88-3.58-2.88h-4.09v8.56h2.42v-2.56h1.02l1.72,2.56h2.79l-2.05-2.98c1.07-.42,1.77-1.35,1.77-2.7Zm-3.72,1.21h-1.54v-2.05h1.54c.84,0,1.3.37,1.3,1.02,0,.61-.47,1.02-1.3,1.02Z"/><rect class="cls-1" x="154.91" y="752.72" width="33.41" height="6.62"/><polygon class="cls-1" points="215.72 751.29 208.9 740.29 200.53 740.29 200.53 768.71 208.29 768.71 208.29 752.47 215.56 763.52 215.72 763.52 223.03 752.39 223.03 768.71 230.92 768.71 230.92 740.29 222.54 740.29 215.72 751.29"/><polygon class="cls-1" points="243.82 757.51 257.55 757.51 257.55 751.29 243.82 751.29 243.82 746.99 258.98 746.99 258.98 740.29 235.98 740.29 235.98 768.71 259.18 768.71 259.18 762.01 243.82 762.01 243.82 757.51"/><polygon class="cls-1" points="278.42 751.29 271.59 740.29 263.22 740.29 263.22 768.71 270.98 768.71 270.98 752.47 278.25 763.52 278.42 763.52 285.73 752.39 285.73 768.71 293.61 768.71 293.61 740.29 285.24 740.29 278.42 751.29"/><path class="cls-1" d="m318.56,753.85c2.53-1.1,4.41-3.04,4.41-6.33v-.08c0-1.95-.7-3.45-1.84-4.59-1.68-1.67-4.21-2.56-7.8-2.56h-14.66v28.42h14.75c6.82,0,10.82-2.96,10.82-7.84v-.08c0-3.86-2.21-5.81-5.68-6.94Zm-12.17-7.23h5.15c2.37,0,3.59.89,3.59,2.44v.08c0,1.67-1.35,2.48-3.76,2.48h-4.98v-4.99Zm9.93,13.16c0,1.67-1.39,2.6-3.8,2.6h-6.13v-5.24h6.04c2.65,0,3.88,1.02,3.88,2.56v.08Z"/><polygon class="cls-1" points="335.72 757.51 349.44 757.51 349.44 751.29 335.72 751.29 335.72 746.99 350.87 746.99 350.87 740.29 327.87 740.29 327.87 768.71 351.08 768.71 351.08 762.01 335.72 762.01 335.72 757.51"/><path class="cls-1" d="m380.48,750.08v-.08c0-2.8-.86-4.99-2.53-6.62-1.92-1.95-4.94-3.09-9.31-3.09h-13.52v28.42h7.93v-8.61h3.47l5.76,8.61h9.15l-6.82-9.91c3.55-1.5,5.88-4.39,5.88-8.73Zm-7.96.49c0,2.07-1.55,3.37-4.25,3.37h-5.23v-6.82h5.19c2.65,0,4.29,1.14,4.29,3.37v.08Z"/><rect class="cls-1" x="390.81" y="752.72" width="33.41" height="6.62"/></g></svg>