<svg height="41px" version="1.1" viewBox="0 0 40 41" width="40px" xmlns="http://www.w3.org/2000/svg" xmlns:xlink="http://www.w3.org/1999/xlink">
<title></title>
<g fill="none" fill-rule="evenodd" stroke="none" stroke-width="1"> <g fill="#3D3D38" fill-rule="nonzero" transform="translate(-234.000000, -1306.000000)"> <g transform="translate(129.000000, 1127.000000)"> <g id="Group-9" transform="translate(0.000000, 50.000000)"> <g transform="translate(0.000000, 113.500000)"> <g id="Group-3" transform="translate(0.000000, 16.000000)"> <g transform="translate(105.000000, 0.000000)"> <path d="M20,8 C13.3832029,8 8,13.3831897 8,20.0000295 C8,26.6168103 13.3832029,32 20,32 C26.6167971,32 32,26.6168103 32,20.0000295 C32,13.3831897 26.6167971,8 20,8 Z M20,30.3098617 C14.3151038,30.3098617 9.69014251,25.6849117 9.69014251,20.0000295 C9.69014251,14.3151473 14.3151038,9.69013835 20,9.69013835 C25.6848962,9.69013835 30.3098575,14.3151473 30.3098575,20.0000295 C30.3098575,25.6849117 25.6848962,30.3098617 20,30.3098617 Z" id="Shape"></path> <rect height="5" width="2" x="19" y="0"></rect> <rect height="5" width="2" x="19" y="35"></rect> <polygon  points="30.9869317 6.7036694 35.7001657 6.7036694 35.7001657 8.36202499 30.9869317 8.36202499" transform="translate(33.343549, 7.532847) rotate(-45.000000) translate(-33.343549, -7.532847) "></polygon> <polygon points="6.1762338 31.5143696 10.8894678 31.5143696 10.8894678 33.1727251 6.1762338 33.1727251" transform="translate(8.532851, 32.343547) rotate(-45.000000) translate(-8.532851, -32.343547) "></polygon> <rect height="2" width="5" x="0" y="19"></rect> <rect height="2" width="5" x="35" y="19"></rect> <polygon  points="7.70367179 5.17623127 9.36202738 5.17623127 9.36202738 9.88946527 7.70367179 9.88946527" transform="translate(8.532850, 7.532848) rotate(-45.000000) translate(-8.532850, -7.532848) "></polygon> <polygon points="32.5143706 29.9869299 34.1727262 29.9869299 34.1727262 34.7001639 32.5143706 34.7001639" transform="translate(33.343548, 32.343547) rotate(-45.000000) translate(-33.343548, -32.343547) "></polygon> </g> </g> </g> </g> </g> </g> </g></svg>
