<?xml version="1.0" encoding="UTF-8"?>
<svg width="12px" height="20px" viewBox="0 0 12 20" version="1.1" xmlns="http://www.w3.org/2000/svg" xmlns:xlink="http://www.w3.org/1999/xlink">
    <!-- Generator: Sketch 55.2 (78181) - https://sketchapp.com -->
    <title>Group</title>
    <desc>Created with Sketch.</desc>
    <g id="Page-1" stroke="none" stroke-width="1" fill="none" fill-rule="evenodd">
        <g id="NEW-CALDERA-FREQUENCY" transform="translate(-90.000000, -801.000000)" fill="#3D3D38">
            <g id="Group-5" transform="translate(0.000000, 179.000000)">
                <g id="Group" transform="translate(100.500000, 632.000000) scale(-1, 1) rotate(45.000000) translate(-100.500000, -632.000000) translate(93.000000, 624.000000)">
                    <path d="M14.8382402,2.3421921 L14.8382402,14.1094335 C14.8382402,14.6096921 14.4337957,15.0146059 13.9354624,15.0146059 C13.4371291,15.0146059 13.0326846,14.6096921 13.0326846,14.1094335 L13.0326846,2.3421921 L1.2965735,2.3421921 C0.798240171,2.3421921 0.393795727,1.93727831 0.393795727,1.43701969 C0.393795727,0.937364516 0.798240171,0.531847275 1.2965735,0.531847275 L13.9258328,0.531847275 C14.1677772,0.531847275 14.400092,0.628398999 14.5710179,0.79977831 C14.7419439,0.971761068 14.8382402,1.20408865 14.8382402,1.44667486 L14.8382402,2.3421921 Z" id="Path"></path>
                </g>
            </g>
        </g>
    </g>
</svg>