<?xml version="1.0" encoding="UTF-8"?>
<svg width="12px" height="21px" viewBox="0 0 12 21" version="1.1" xmlns="http://www.w3.org/2000/svg" xmlns:xlink="http://www.w3.org/1999/xlink">
    <!-- Generator: Sketch 55.2 (78181) - https://sketchapp.com -->
    <title>Group</title>
    <desc>Created with Sketch.</desc>
    <g id="Page-1" stroke="none" stroke-width="1" fill="none" fill-rule="evenodd">
        <g id="NEW-CALDERA-FREQUENCY" transform="translate(-648.000000, -801.000000)" fill="#3D3D38">
            <g id="Group-5" transform="translate(0.000000, 179.000000)">
                <g id="Group" transform="translate(649.500000, 632.500000) scale(-1, 1) rotate(225.000000) translate(-649.500000, -632.500000) translate(642.000000, 625.000000)">
                    <path d="M14.5095148,2.20056575 L14.5095148,13.8340885 C14.5095148,14.3286623 14.1105148,14.7289748 13.6188898,14.7289748 C13.1272648,14.7289748 12.7282648,14.3286623 12.7282648,13.8340885 L12.7282648,2.20056575 L1.15013981,2.20056575 C0.658514806,2.20056575 0.259514806,1.80025325 0.259514806,1.30567939 C0.259514806,0.811702113 0.658514806,0.410793022 1.15013981,0.410793022 L13.6093898,0.410793022 C13.8480773,0.410793022 14.0772648,0.506247567 14.2458898,0.675679385 C14.4145148,0.845707794 14.5095148,1.07539529 14.5095148,1.31522484 L14.5095148,2.20056575 Z" id="Path"></path>
                </g>
            </g>
        </g>
    </g>
</svg>