<svg width="127" height="19" viewBox="0 0 127 19" fill="none" xmlns="http://www.w3.org/2000/svg">
<path fill-rule="evenodd" clip-rule="evenodd" d="M9.46318 0.375702L11.6971 7.25111H18.9264L13.0778 11.5003L15.3118 18.3757L9.46318 14.1265L3.61456 18.3757L5.84848 11.5003L0 7.25111H7.22927L9.46318 0.375702Z" fill="#B9680C"/>
<path fill-rule="evenodd" clip-rule="evenodd" d="M36.4632 0L38.6971 6.87541H45.9264L40.0777 11.1246L42.3118 18L36.4632 13.7508L30.6146 18L32.8485 11.1246L27 6.87541H34.2293L36.4632 0Z" fill="#B9680C"/>
<path fill-rule="evenodd" clip-rule="evenodd" d="M63.4632 0L65.6971 6.87541H72.9264L67.0778 11.1246L69.3118 18L63.4632 13.7508L57.6146 18L59.8485 11.1246L54 6.87541H61.2293L63.4632 0Z" fill="#B9680C"/>
<path fill-rule="evenodd" clip-rule="evenodd" d="M90.4632 0L92.6971 6.87541H99.9264L94.0778 11.1246L96.3118 18L90.4632 13.7508L84.6146 18L86.8485 11.1246L81 6.87541H88.2293L90.4632 0Z" fill="#B9680C"/>
<path fill-rule="evenodd" clip-rule="evenodd" d="M117.463 0L119.697 6.87541H126.926L121.078 11.1246L123.312 18L117.463 13.7508L111.615 18L113.848 11.1246L108 6.87541H115.229L117.463 0Z" fill="#B9680C"/>
</svg>
