<svg xmlns="http://www.w3.org/2000/svg" width="35" height="35">
    <path fill="#80894F" fill-rule="evenodd" d="M17.496 8.75c-4.821 0-8.747 3.927-8.747 8.75s3.926 8.75 8.747 8.75c4.823 0 8.749-3.927 8.749-8.75s-3.926-8.75-8.749-8.75zm0 15.02a6.274 6.274 0 0 1-6.268-6.27 6.274 6.274 0 0 1 6.268-6.27 6.275 6.275 0 0 1 6.269 6.27 6.275 6.275 0 0 1-6.269 6.27zM27.21 5.898a2.53 2.53 0 0 0-2.529 2.528 2.526 2.526 0 0 0 2.529 2.529 2.53 2.53 0 0 0 2.528-2.529 2.526 2.526 0 0 0-2.528-2.528zM26.217 0H8.776C3.933 0 0 3.934 0 8.778v17.451C0 31.066 3.933 35 8.776 35h17.448C31.06 35 35 31.066 35 26.222V8.778C34.993 3.934 31.06 0 26.217 0zm6.297 26.222a6.305 6.305 0 0 1-6.297 6.298H8.776a6.304 6.304 0 0 1-6.296-6.298V8.778A6.304 6.304 0 0 1 8.776 2.48h17.448c3.465 0 6.29 2.825 6.29 6.298v17.444z"/>
</svg>
