<svg xmlns="http://www.w3.org/2000/svg" width="35" height="35">
    <path fill="#80894F" fill-rule="evenodd" d="M26.218 0H8.776C3.933 0 0 3.934 0 8.778v17.451C0 31.066 3.933 35 8.776 35h17.449C31.06 35 35 31.066 35 26.222V8.778C34.993 3.934 31.06 0 26.218 0zm6.295 26.222a6.304 6.304 0 0 1-6.295 6.298H8.776a6.304 6.304 0 0 1-6.296-6.298V8.778A6.304 6.304 0 0 1 8.776 2.48h17.449c3.464 0 6.288 2.825 6.288 6.298v17.444z"/>
    <path fill="#80894F" fill-rule="evenodd" d="M18.326 13.906v-1.547c0-.225 0-.422.028-.534a.834.834 0 0 1 .141-.366.723.723 0 0 1 .367-.253 2.13 2.13 0 0 1 .647-.084h1.493V8h-2.366c-1.38 0-2.366.337-2.957 1.012-.591.676-.901 1.688-.901 3.01v1.884h-1.775V17h1.775v9h3.548v-9h2.366l.31-3.094h-2.676z"/>
</svg>
