<svg xmlns="http://www.w3.org/2000/svg" width="31" height="39">
    <path fill="#80894F" fill-rule="evenodd" d="M31 26.119c-.061-.366-.911-6.957-7.22-9.337-.243-.122-.486-.122-.667 0l-.789.305v-4.638c0-1.587-2.245-2.319-4.49-2.319s-4.489.671-4.489 2.319v8.544c0 1.587 2.244 2.319 4.489 2.319 2.245 0 4.49-.671 4.49-2.319v-1.77l1.152-.427c3.519 1.465 4.854 4.699 5.339 6.408H6.489l4.247-1.587c.485-.183.789-.732.606-1.282-.182-.549-.727-.793-1.274-.61L.726 25.204c-.061 0-.061.061-.122.061-.06 0-.06.061-.121.061s-.061.061-.122.061v.061l-.061.061c0 .061-.06.061-.06.122s-.061.061-.061.122-.061.061-.061.122 0 .061-.06.122c0 .061 0 .061-.061.122V38.02c0 .549.425.977.971.977h29a.961.961 0 0 0 .971-.977V26.119H31zM20.383 20.81c-.244.183-1.092.488-2.488.488-1.456 0-2.245-.366-2.488-.488v-8.178c.243-.183 1.093-.489 2.488-.489 1.456 0 2.244.367 2.488.489v8.178zm8.675 9.215c-.971.122-1.698.611-2.427 1.038-.849.488-1.516.915-2.729.915-1.092 0-1.639-.366-2.366-.854-.789-.55-1.76-1.16-3.459-1.16s-2.73.672-3.58 1.16c-.727.427-1.274.854-2.305.854-1.032 0-1.698-.366-2.487-.915-.911-.549-1.881-1.16-3.398-1.16-1.699 0-2.609.611-3.337 1.099-.425.244-.667.427-1.031.488v-4.394h27.058l.061 2.929zM2.06 36.8v-3.235c.91-.122 1.517-.488 2.063-.854.667-.367 1.213-.794 2.245-.794.971 0 1.577.367 2.366.855.91.549 1.941 1.159 3.518 1.159 1.579 0 2.488-.61 3.337-1.159.729-.488 1.395-.916 2.488-.916 1.092 0 1.699.366 2.427.855.849.549 1.759 1.159 3.458 1.159 1.698 0 2.791-.671 3.761-1.22.486-.306.911-.55 1.395-.672v4.76H2.06v.062zM17.834 8.848c1.821 0 2.549-.793 2.852-1.465 1.031-2.136-1.578-5.676-2.124-6.408l-.789-.976-.789.976c-.545.671-3.153 4.211-2.122 6.408.424.672 1.213 1.465 2.972 1.465zm0-5.493c.789 1.282 1.395 2.624 1.092 3.174-.121.183-.485.305-1.092.305-.606 0-.971-.122-1.092-.305-.242-.55.304-1.892 1.092-3.174z"/>
</svg>
