<svg xmlns="http://www.w3.org/2000/svg" width="78" height="76">
    <path fill="#FFF" fill-rule="evenodd" d="M5.748 48.097h8.732l9.563 11.249h-8.737L5.748 48.097zm57.771 0h8.732l-9.557 11.249h-8.735l9.56-11.249zM51.967 34.684l8.381 11.603v.225l-8.381 9.858V34.684zM17.654 46.51v-.225l8.381-11.603V56.37l-8.381-9.86zm-.408-15.122h6.913l-9.584 13.277H6.149l11.097-13.277zm36.594 0h6.914l11.1 13.277h-8.43L53.84 31.388zM30.014 16.117l7.259-8.681V24.66l-7.259-8.543zm10.715-8.681l7.256 8.681-7.256 8.543V7.436zM39.001-.001L25.51 16.139l11.763 13.84V69.59l-7.786-9.157V31.558l-3.063-3.607H15.625L-.001 46.645l13.706 16.133h13.256l8.32 9.791H13.943v3.432h50.114v-3.432H42.721l8.319-9.791h13.254l13.707-16.133-15.624-18.694H51.576l-3.064 3.607v28.875l-7.783 9.157V29.979l11.763-13.84L39.001-.001z"/>
</svg>
