<svg xmlns="http://www.w3.org/2000/svg" width="69" height="27">
    <path fill="#80894F" fill-rule="evenodd" d="M25.56 1.44C24.6.512 23.371 0 22.049 0a4.96 4.96 0 0 0-3.511 1.44L3.625 16.288a1.02 1.02 0 0 0-.21.302L.054 25.862c-.118.302-.032.631.179.868.151.178.388.27.598.27.092 0 .151 0 .243-.032l8.403-2.578c.118-.033.238-.119.362-.211L25.56 8.462A4.949 4.949 0 0 0 27 4.951a4.987 4.987 0 0 0-1.44-3.511zM8.517 22.923l-3.15.959a3.568 3.568 0 0 0-.868-1.407 4.454 4.454 0 0 0-1.138-.809l1.44-3.932h1.947v1.677c0 .48.388.842.842.842h1.499l-.572 2.67zm12.421-12.244L10.648 20.97l.301-1.381a.805.805 0 0 0-.177-.717c-.152-.21-.389-.302-.658-.302H8.431v-1.677a.861.861 0 0 0-.841-.842H6.268l10.021-9.989c.63-.631 1.44-.96 2.308-.96.869 0 1.71.329 2.309.96.63.631.96 1.44.96 2.309a3.117 3.117 0 0 1-.928 2.308zm3.425-3.419l-.782.782A4.755 4.755 0 0 0 22.14 4.86c-.868-.869-1.978-1.349-3.182-1.441l.782-.782a3.222 3.222 0 0 1 2.309-.96c.868 0 1.709.329 2.308.96a3.22 3.22 0 0 1 .96 2.309 3.214 3.214 0 0 1-.954 2.314zm-5.556-.27l-8.43 8.462a.852.852 0 0 0 0 1.198.89.89 0 0 0 .599.243c.21 0 .421-.092.599-.243l8.43-8.43a.85.85 0 0 0 0-1.198.823.823 0 0 0-1.198-.032zM66.433 21.439L66.899 25 63.5 23.476 60.101 25l.466-3.561L58 18.82l3.687-.677L63.5 15l1.813 3.143L69 18.82l-2.567 2.619zM49.899 25L46.5 23.476 43.101 25l.466-3.561L41 18.82l3.687-.677L46.5 15l1.813 3.143L52 18.82l-2.567 2.619.466 3.561zm-17 0L29.5 23.476 26.101 25l.466-3.561L24 18.82l3.687-.677L29.5 15l1.813 3.143 3.686.677-2.566 2.619.466 3.561z"/>
</svg>
