<svg xmlns="http://www.w3.org/2000/svg" width="39.3" height="39.3">
    <path fill="none" stroke="#80894F" stroke-width="2.2" d="M19.1 1.1c9.941 0 18 8.059 18 18s-8.059 18-18 18-18-8.059-18-18 8.059-18 18-18z"/>
    <path fill="#80894F" fill-rule="evenodd" d="M20.151 11.401h-.973v1.225c-1.926.126-3.762 1.422-3.762 3.564 0 2.305 1.656 3.133 3.762 3.71v3.997c-.917-.018-1.998-.576-2.646-1.332l-1.584 1.512c1.134 1.098 2.646 1.621 4.23 1.674v1.297h.973v-1.297c1.999-.053 3.835-1.332 3.835-3.835 0-2.431-1.999-3.277-3.835-3.853v-3.637c.829 0 1.729.342 2.287.954l1.458-1.512c-.972-.846-2.431-1.26-3.745-1.279v-1.188zm-.973 6.41c-.917-.27-1.601-.738-1.601-1.729 0-1.044.756-1.566 1.601-1.656v3.385zm.973 2.377c.955.324 1.675.792 1.675 1.854 0 1.063-.666 1.801-1.675 1.855v-3.709z"/>
</svg>
