<svg xmlns="http://www.w3.org/2000/svg" width="37" height="37">
    <path fill="#80894F" fill-rule="evenodd" d="M18.5 8.325c-4.104 0-7.4 3.353-7.4 7.573 0 4.163 3.296 7.574 7.4 7.574 4.105 0 7.4-3.353 7.4-7.574 0-4.22-3.295-7.573-7.4-7.573zM18.5 0C8.267 0 0 8.267 0 18.5S8.267 37 18.5 37 37 28.733 37 18.5 28.733 0 18.5 0zm11.331 29.831c-2.428-2.37-6.59-3.931-11.331-3.931s-8.903 1.561-11.332 3.931A15.94 15.94 0 0 1 2.486 18.5c0-8.845 7.169-16.014 16.014-16.014 8.846 0 16.014 7.169 16.014 16.014 0 4.394-1.792 8.383-4.683 11.331z"/>
</svg>
