<svg xmlns="http://www.w3.org/2000/svg" width="46.2" height="39.3">
    <path fill="none" stroke="#80894F" stroke-width="2.2" d="M19.1 1.1c9.941 0 18 8.059 18 18s-8.059 18-18 18-18-8.059-18-18 8.059-18 18-18z"/>
    <path fill="#80894F" fill-rule="evenodd" d="M20.151 11.401h-.972v1.224c-1.927.126-3.763 1.423-3.763 3.566 0 2.304 1.656 3.133 3.763 3.709v3.997c-.918-.018-1.998-.576-2.647-1.333l-1.585 1.513c1.135 1.098 2.647 1.62 4.232 1.674v1.297h.972v-1.297c1.998-.054 3.835-1.332 3.835-3.835 0-2.431-1.999-3.277-3.835-3.853v-3.637c.829 0 1.729.342 2.287.954l1.458-1.512c-.972-.846-2.431-1.261-3.745-1.279v-1.188zm-.972 6.41c-.918-.27-1.603-.738-1.603-1.728 0-1.045.757-1.567 1.603-1.657v3.385zm.972 2.377c.955.324 1.675.792 1.675 1.854 0 1.063-.667 1.801-1.675 1.855v-3.709z"/>
    <path fill-rule="evenodd" d="M36.1.1a9 9 0 0 1 9 9 9 9 0 0 1-9 9 9 9 0 0 1-9-9 9 9 0 0 1 9-9z"/>
    <path fill="#FFF" fill-rule="evenodd" d="M34.997 9.857h.421c1.05 0 2.41.393 2.41 1.681 0 1.191-.953 1.639-1.822 1.639-1.05 0-1.736-.616-1.975-1.4l-1.568.49c.532 1.653 1.933 2.339 3.599 2.339 1.681 0 3.46-.994 3.46-3.054 0-1.218-.84-2.143-2.045-2.381v-.028c1.078-.266 1.779-1.176 1.779-2.241 0-1.779-1.457-2.718-3.194-2.718-1.582 0-2.885.939-3.235 2.27l1.582.406c.197-.756.77-1.275 1.583-1.275.84 0 1.569.533 1.569 1.429 0 1.219-1.121 1.499-2.115 1.499h-.449v1.344z"/>
</svg>
